<svg xmlns="http://www.w3.org/2000/svg" width="160" height="160" viewBox="0 0 160 160" role="img" aria-label="MR.BOLT avatar">
  <rect width="160" height="160" rx="22" fill="#11171a"/>
  <rect x="10" y="10" width="140" height="140" rx="18" fill="#fff7d6"/>
  <rect x="22" y="28" width="116" height="76" rx="18" fill="#f6b33b"/>
  <path d="M48 44h64l-12 26h25L63 130l15-42H50l-2-44Z" fill="#234a61"/>
  <path d="M56 57h47l-10 21h22l-39 37 11-33H61l-5-25Z" fill="#30c8ce"/>
  <path d="M45 34c15-12 54-13 70 0" fill="none" stroke="#101214" stroke-width="10" stroke-linecap="round"/>
  <path d="M52 112c17 12 39 12 56 0" fill="none" stroke="#101214" stroke-width="8" stroke-linecap="round"/>
  <circle cx="57" cy="79" r="6" fill="#101214"/>
  <circle cx="103" cy="79" r="6" fill="#101214"/>
  <path d="M28 120c16 13 29 18 52 18s36-5 52-18" fill="none" stroke="#101214" stroke-width="5" stroke-linecap="round"/>
  <text x="80" y="148" fill="#101214" font-family="Arial, sans-serif" font-size="15" font-weight="900" text-anchor="middle">MR.BOLT</text>
</svg>
